<mxfile host="app.diagrams.net" modified="2024-01-29T16:38:40.897Z" agent="Mozilla/5.0 (Windows NT 10.0; Win64; x64) AppleWebKit/537.36 (KHTML, like Gecko) Chrome/121.0.0.0 Safari/537.36" etag="s07o6gCw5NpjG_ycX377" version="23.0.2" type="github">
  <diagram name="Page-1" id="2Awoi_qUzugFAxgsNXAW">
    <mxGraphModel dx="1050" dy="570" grid="1" gridSize="10" guides="1" tooltips="1" connect="1" arrows="1" fold="1" page="1" pageScale="1" pageWidth="1100" pageHeight="850" math="0" shadow="0">
      <root>
        <mxCell id="0" />
        <mxCell id="1" parent="0" />
        <mxCell id="45whqpLXDAFSuF5FTHzw-590" value="TBL_STOCK" style="shape=table;startSize=30;container=1;collapsible=0;childLayout=tableLayout;" vertex="1" parent="1">
          <mxGeometry x="110" y="40" width="720" height="327" as="geometry" />
        </mxCell>
        <mxCell id="45whqpLXDAFSuF5FTHzw-591" value="" style="shape=tableRow;horizontal=0;startSize=0;swimlaneHead=0;swimlaneBody=0;strokeColor=inherit;top=0;left=0;bottom=0;right=0;collapsible=0;dropTarget=0;fillColor=none;points=[[0,0.5],[1,0.5]];portConstraint=eastwest;" vertex="1" parent="45whqpLXDAFSuF5FTHzw-590">
          <mxGeometry y="30" width="720" height="48" as="geometry" />
        </mxCell>
        <mxCell id="45whqpLXDAFSuF5FTHzw-592" value="Field name" style="shape=partialRectangle;html=1;whiteSpace=wrap;connectable=0;strokeColor=inherit;overflow=hidden;fillColor=none;top=0;left=0;bottom=0;right=0;pointerEvents=1;" vertex="1" parent="45whqpLXDAFSuF5FTHzw-591">
          <mxGeometry width="144" height="48" as="geometry">
            <mxRectangle width="144" height="48" as="alternateBounds" />
          </mxGeometry>
        </mxCell>
        <mxCell id="45whqpLXDAFSuF5FTHzw-593" value="Data Type&amp;nbsp;" style="shape=partialRectangle;html=1;whiteSpace=wrap;connectable=0;strokeColor=inherit;overflow=hidden;fillColor=none;top=0;left=0;bottom=0;right=0;pointerEvents=1;" vertex="1" parent="45whqpLXDAFSuF5FTHzw-591">
          <mxGeometry x="144" width="144" height="48" as="geometry">
            <mxRectangle width="144" height="48" as="alternateBounds" />
          </mxGeometry>
        </mxCell>
        <mxCell id="45whqpLXDAFSuF5FTHzw-594" value="Field Length" style="shape=partialRectangle;html=1;whiteSpace=wrap;connectable=0;strokeColor=inherit;overflow=hidden;fillColor=none;top=0;left=0;bottom=0;right=0;pointerEvents=1;" vertex="1" parent="45whqpLXDAFSuF5FTHzw-591">
          <mxGeometry x="288" width="144" height="48" as="geometry">
            <mxRectangle width="144" height="48" as="alternateBounds" />
          </mxGeometry>
        </mxCell>
        <mxCell id="45whqpLXDAFSuF5FTHzw-595" value="Constraint" style="shape=partialRectangle;html=1;whiteSpace=wrap;connectable=0;strokeColor=inherit;overflow=hidden;fillColor=none;top=0;left=0;bottom=0;right=0;pointerEvents=1;" vertex="1" parent="45whqpLXDAFSuF5FTHzw-591">
          <mxGeometry x="432" width="148" height="48" as="geometry">
            <mxRectangle width="148" height="48" as="alternateBounds" />
          </mxGeometry>
        </mxCell>
        <mxCell id="45whqpLXDAFSuF5FTHzw-596" value="Discription" style="shape=partialRectangle;html=1;whiteSpace=wrap;connectable=0;strokeColor=inherit;overflow=hidden;fillColor=none;top=0;left=0;bottom=0;right=0;pointerEvents=1;" vertex="1" parent="45whqpLXDAFSuF5FTHzw-591">
          <mxGeometry x="580" width="140" height="48" as="geometry">
            <mxRectangle width="140" height="48" as="alternateBounds" />
          </mxGeometry>
        </mxCell>
        <mxCell id="45whqpLXDAFSuF5FTHzw-597" value="" style="shape=tableRow;horizontal=0;startSize=0;swimlaneHead=0;swimlaneBody=0;strokeColor=inherit;top=0;left=0;bottom=0;right=0;collapsible=0;dropTarget=0;fillColor=none;points=[[0,0.5],[1,0.5]];portConstraint=eastwest;" vertex="1" parent="45whqpLXDAFSuF5FTHzw-590">
          <mxGeometry y="78" width="720" height="49" as="geometry" />
        </mxCell>
        <mxCell id="45whqpLXDAFSuF5FTHzw-598" value="stock_no" style="shape=partialRectangle;html=1;whiteSpace=wrap;connectable=0;strokeColor=inherit;overflow=hidden;fillColor=none;top=0;left=0;bottom=0;right=0;pointerEvents=1;" vertex="1" parent="45whqpLXDAFSuF5FTHzw-597">
          <mxGeometry width="144" height="49" as="geometry">
            <mxRectangle width="144" height="49" as="alternateBounds" />
          </mxGeometry>
        </mxCell>
        <mxCell id="45whqpLXDAFSuF5FTHzw-599" value="number" style="shape=partialRectangle;html=1;whiteSpace=wrap;connectable=0;strokeColor=inherit;overflow=hidden;fillColor=none;top=0;left=0;bottom=0;right=0;pointerEvents=1;" vertex="1" parent="45whqpLXDAFSuF5FTHzw-597">
          <mxGeometry x="144" width="144" height="49" as="geometry">
            <mxRectangle width="144" height="49" as="alternateBounds" />
          </mxGeometry>
        </mxCell>
        <mxCell id="45whqpLXDAFSuF5FTHzw-600" value="10" style="shape=partialRectangle;html=1;whiteSpace=wrap;connectable=0;strokeColor=inherit;overflow=hidden;fillColor=none;top=0;left=0;bottom=0;right=0;pointerEvents=1;" vertex="1" parent="45whqpLXDAFSuF5FTHzw-597">
          <mxGeometry x="288" width="144" height="49" as="geometry">
            <mxRectangle width="144" height="49" as="alternateBounds" />
          </mxGeometry>
        </mxCell>
        <mxCell id="45whqpLXDAFSuF5FTHzw-601" value="primary key" style="shape=partialRectangle;html=1;whiteSpace=wrap;connectable=0;strokeColor=inherit;overflow=hidden;fillColor=none;top=0;left=0;bottom=0;right=0;pointerEvents=1;" vertex="1" parent="45whqpLXDAFSuF5FTHzw-597">
          <mxGeometry x="432" width="148" height="49" as="geometry">
            <mxRectangle width="148" height="49" as="alternateBounds" />
          </mxGeometry>
        </mxCell>
        <mxCell id="45whqpLXDAFSuF5FTHzw-602" value="unique identification of stock using number" style="shape=partialRectangle;html=1;whiteSpace=wrap;connectable=0;strokeColor=inherit;overflow=hidden;fillColor=none;top=0;left=0;bottom=0;right=0;pointerEvents=1;" vertex="1" parent="45whqpLXDAFSuF5FTHzw-597">
          <mxGeometry x="580" width="140" height="49" as="geometry">
            <mxRectangle width="140" height="49" as="alternateBounds" />
          </mxGeometry>
        </mxCell>
        <mxCell id="45whqpLXDAFSuF5FTHzw-603" value="" style="shape=tableRow;horizontal=0;startSize=0;swimlaneHead=0;swimlaneBody=0;strokeColor=inherit;top=0;left=0;bottom=0;right=0;collapsible=0;dropTarget=0;fillColor=none;points=[[0,0.5],[1,0.5]];portConstraint=eastwest;" vertex="1" parent="45whqpLXDAFSuF5FTHzw-590">
          <mxGeometry y="127" width="720" height="48" as="geometry" />
        </mxCell>
        <mxCell id="45whqpLXDAFSuF5FTHzw-604" value="stock_name" style="shape=partialRectangle;html=1;whiteSpace=wrap;connectable=0;strokeColor=inherit;overflow=hidden;fillColor=none;top=0;left=0;bottom=0;right=0;pointerEvents=1;" vertex="1" parent="45whqpLXDAFSuF5FTHzw-603">
          <mxGeometry width="144" height="48" as="geometry">
            <mxRectangle width="144" height="48" as="alternateBounds" />
          </mxGeometry>
        </mxCell>
        <mxCell id="45whqpLXDAFSuF5FTHzw-605" value="varchar" style="shape=partialRectangle;html=1;whiteSpace=wrap;connectable=0;strokeColor=inherit;overflow=hidden;fillColor=none;top=0;left=0;bottom=0;right=0;pointerEvents=1;" vertex="1" parent="45whqpLXDAFSuF5FTHzw-603">
          <mxGeometry x="144" width="144" height="48" as="geometry">
            <mxRectangle width="144" height="48" as="alternateBounds" />
          </mxGeometry>
        </mxCell>
        <mxCell id="45whqpLXDAFSuF5FTHzw-606" value="25" style="shape=partialRectangle;html=1;whiteSpace=wrap;connectable=0;strokeColor=inherit;overflow=hidden;fillColor=none;top=0;left=0;bottom=0;right=0;pointerEvents=1;" vertex="1" parent="45whqpLXDAFSuF5FTHzw-603">
          <mxGeometry x="288" width="144" height="48" as="geometry">
            <mxRectangle width="144" height="48" as="alternateBounds" />
          </mxGeometry>
        </mxCell>
        <mxCell id="45whqpLXDAFSuF5FTHzw-607" value="not null" style="shape=partialRectangle;html=1;whiteSpace=wrap;connectable=0;strokeColor=inherit;overflow=hidden;fillColor=none;top=0;left=0;bottom=0;right=0;pointerEvents=1;" vertex="1" parent="45whqpLXDAFSuF5FTHzw-603">
          <mxGeometry x="432" width="148" height="48" as="geometry">
            <mxRectangle width="148" height="48" as="alternateBounds" />
          </mxGeometry>
        </mxCell>
        <mxCell id="45whqpLXDAFSuF5FTHzw-608" value="Name of product" style="shape=partialRectangle;html=1;whiteSpace=wrap;connectable=0;strokeColor=inherit;overflow=hidden;fillColor=none;top=0;left=0;bottom=0;right=0;pointerEvents=1;" vertex="1" parent="45whqpLXDAFSuF5FTHzw-603">
          <mxGeometry x="580" width="140" height="48" as="geometry">
            <mxRectangle width="140" height="48" as="alternateBounds" />
          </mxGeometry>
        </mxCell>
        <mxCell id="45whqpLXDAFSuF5FTHzw-609" value="" style="shape=tableRow;horizontal=0;startSize=0;swimlaneHead=0;swimlaneBody=0;strokeColor=inherit;top=0;left=0;bottom=0;right=0;collapsible=0;dropTarget=0;fillColor=none;points=[[0,0.5],[1,0.5]];portConstraint=eastwest;" vertex="1" parent="45whqpLXDAFSuF5FTHzw-590">
          <mxGeometry y="175" width="720" height="55" as="geometry" />
        </mxCell>
        <mxCell id="45whqpLXDAFSuF5FTHzw-610" value="Cat_no" style="shape=partialRectangle;html=1;whiteSpace=wrap;connectable=0;strokeColor=inherit;overflow=hidden;fillColor=none;top=0;left=0;bottom=0;right=0;pointerEvents=1;" vertex="1" parent="45whqpLXDAFSuF5FTHzw-609">
          <mxGeometry width="144" height="55" as="geometry">
            <mxRectangle width="144" height="55" as="alternateBounds" />
          </mxGeometry>
        </mxCell>
        <mxCell id="45whqpLXDAFSuF5FTHzw-611" value="number" style="shape=partialRectangle;html=1;whiteSpace=wrap;connectable=0;strokeColor=inherit;overflow=hidden;fillColor=none;top=0;left=0;bottom=0;right=0;pointerEvents=1;" vertex="1" parent="45whqpLXDAFSuF5FTHzw-609">
          <mxGeometry x="144" width="144" height="55" as="geometry">
            <mxRectangle width="144" height="55" as="alternateBounds" />
          </mxGeometry>
        </mxCell>
        <mxCell id="45whqpLXDAFSuF5FTHzw-612" value="10" style="shape=partialRectangle;html=1;whiteSpace=wrap;connectable=0;strokeColor=inherit;overflow=hidden;fillColor=none;top=0;left=0;bottom=0;right=0;pointerEvents=1;" vertex="1" parent="45whqpLXDAFSuF5FTHzw-609">
          <mxGeometry x="288" width="144" height="55" as="geometry">
            <mxRectangle width="144" height="55" as="alternateBounds" />
          </mxGeometry>
        </mxCell>
        <mxCell id="45whqpLXDAFSuF5FTHzw-613" value="foreign key" style="shape=partialRectangle;html=1;whiteSpace=wrap;connectable=0;strokeColor=inherit;overflow=hidden;fillColor=none;top=0;left=0;bottom=0;right=0;pointerEvents=1;" vertex="1" parent="45whqpLXDAFSuF5FTHzw-609">
          <mxGeometry x="432" width="148" height="55" as="geometry">
            <mxRectangle width="148" height="55" as="alternateBounds" />
          </mxGeometry>
        </mxCell>
        <mxCell id="45whqpLXDAFSuF5FTHzw-614" value="category wise distribution" style="shape=partialRectangle;html=1;whiteSpace=wrap;connectable=0;strokeColor=inherit;overflow=hidden;fillColor=none;top=0;left=0;bottom=0;right=0;pointerEvents=1;" vertex="1" parent="45whqpLXDAFSuF5FTHzw-609">
          <mxGeometry x="580" width="140" height="55" as="geometry">
            <mxRectangle width="140" height="55" as="alternateBounds" />
          </mxGeometry>
        </mxCell>
        <mxCell id="45whqpLXDAFSuF5FTHzw-615" value="" style="shape=tableRow;horizontal=0;startSize=0;swimlaneHead=0;swimlaneBody=0;strokeColor=inherit;top=0;left=0;bottom=0;right=0;collapsible=0;dropTarget=0;fillColor=none;points=[[0,0.5],[1,0.5]];portConstraint=eastwest;" vertex="1" parent="45whqpLXDAFSuF5FTHzw-590">
          <mxGeometry y="230" width="720" height="49" as="geometry" />
        </mxCell>
        <mxCell id="45whqpLXDAFSuF5FTHzw-616" value="quantity" style="shape=partialRectangle;html=1;whiteSpace=wrap;connectable=0;strokeColor=inherit;overflow=hidden;fillColor=none;top=0;left=0;bottom=0;right=0;pointerEvents=1;" vertex="1" parent="45whqpLXDAFSuF5FTHzw-615">
          <mxGeometry width="144" height="49" as="geometry">
            <mxRectangle width="144" height="49" as="alternateBounds" />
          </mxGeometry>
        </mxCell>
        <mxCell id="45whqpLXDAFSuF5FTHzw-617" value="int" style="shape=partialRectangle;html=1;whiteSpace=wrap;connectable=0;strokeColor=inherit;overflow=hidden;fillColor=none;top=0;left=0;bottom=0;right=0;pointerEvents=1;" vertex="1" parent="45whqpLXDAFSuF5FTHzw-615">
          <mxGeometry x="144" width="144" height="49" as="geometry">
            <mxRectangle width="144" height="49" as="alternateBounds" />
          </mxGeometry>
        </mxCell>
        <mxCell id="45whqpLXDAFSuF5FTHzw-618" value="10" style="shape=partialRectangle;html=1;whiteSpace=wrap;connectable=0;strokeColor=inherit;overflow=hidden;fillColor=none;top=0;left=0;bottom=0;right=0;pointerEvents=1;" vertex="1" parent="45whqpLXDAFSuF5FTHzw-615">
          <mxGeometry x="288" width="144" height="49" as="geometry">
            <mxRectangle width="144" height="49" as="alternateBounds" />
          </mxGeometry>
        </mxCell>
        <mxCell id="45whqpLXDAFSuF5FTHzw-619" value="" style="shape=partialRectangle;html=1;whiteSpace=wrap;connectable=0;strokeColor=inherit;overflow=hidden;fillColor=none;top=0;left=0;bottom=0;right=0;pointerEvents=1;" vertex="1" parent="45whqpLXDAFSuF5FTHzw-615">
          <mxGeometry x="432" width="148" height="49" as="geometry">
            <mxRectangle width="148" height="49" as="alternateBounds" />
          </mxGeometry>
        </mxCell>
        <mxCell id="45whqpLXDAFSuF5FTHzw-620" value="how much in quantity&amp;nbsp;" style="shape=partialRectangle;html=1;whiteSpace=wrap;connectable=0;strokeColor=inherit;overflow=hidden;fillColor=none;top=0;left=0;bottom=0;right=0;pointerEvents=1;" vertex="1" parent="45whqpLXDAFSuF5FTHzw-615">
          <mxGeometry x="580" width="140" height="49" as="geometry">
            <mxRectangle width="140" height="49" as="alternateBounds" />
          </mxGeometry>
        </mxCell>
        <mxCell id="45whqpLXDAFSuF5FTHzw-621" value="" style="shape=tableRow;horizontal=0;startSize=0;swimlaneHead=0;swimlaneBody=0;strokeColor=inherit;top=0;left=0;bottom=0;right=0;collapsible=0;dropTarget=0;fillColor=none;points=[[0,0.5],[1,0.5]];portConstraint=eastwest;" vertex="1" parent="45whqpLXDAFSuF5FTHzw-590">
          <mxGeometry y="279" width="720" height="48" as="geometry" />
        </mxCell>
        <mxCell id="45whqpLXDAFSuF5FTHzw-622" value="price" style="shape=partialRectangle;html=1;whiteSpace=wrap;connectable=0;strokeColor=inherit;overflow=hidden;fillColor=none;top=0;left=0;bottom=0;right=0;pointerEvents=1;" vertex="1" parent="45whqpLXDAFSuF5FTHzw-621">
          <mxGeometry width="144" height="48" as="geometry">
            <mxRectangle width="144" height="48" as="alternateBounds" />
          </mxGeometry>
        </mxCell>
        <mxCell id="45whqpLXDAFSuF5FTHzw-623" value="decimal" style="shape=partialRectangle;html=1;whiteSpace=wrap;connectable=0;strokeColor=inherit;overflow=hidden;fillColor=none;top=0;left=0;bottom=0;right=0;pointerEvents=1;" vertex="1" parent="45whqpLXDAFSuF5FTHzw-621">
          <mxGeometry x="144" width="144" height="48" as="geometry">
            <mxRectangle width="144" height="48" as="alternateBounds" />
          </mxGeometry>
        </mxCell>
        <mxCell id="45whqpLXDAFSuF5FTHzw-624" value="9.2" style="shape=partialRectangle;html=1;whiteSpace=wrap;connectable=0;strokeColor=inherit;overflow=hidden;fillColor=none;top=0;left=0;bottom=0;right=0;pointerEvents=1;" vertex="1" parent="45whqpLXDAFSuF5FTHzw-621">
          <mxGeometry x="288" width="144" height="48" as="geometry">
            <mxRectangle width="144" height="48" as="alternateBounds" />
          </mxGeometry>
        </mxCell>
        <mxCell id="45whqpLXDAFSuF5FTHzw-625" value="not null" style="shape=partialRectangle;html=1;whiteSpace=wrap;connectable=0;strokeColor=inherit;overflow=hidden;fillColor=none;top=0;left=0;bottom=0;right=0;pointerEvents=1;" vertex="1" parent="45whqpLXDAFSuF5FTHzw-621">
          <mxGeometry x="432" width="148" height="48" as="geometry">
            <mxRectangle width="148" height="48" as="alternateBounds" />
          </mxGeometry>
        </mxCell>
        <mxCell id="45whqpLXDAFSuF5FTHzw-626" value="price of product&amp;nbsp;" style="shape=partialRectangle;html=1;whiteSpace=wrap;connectable=0;strokeColor=inherit;overflow=hidden;fillColor=none;top=0;left=0;bottom=0;right=0;pointerEvents=1;" vertex="1" parent="45whqpLXDAFSuF5FTHzw-621">
          <mxGeometry x="580" width="140" height="48" as="geometry">
            <mxRectangle width="140" height="48" as="alternateBounds" />
          </mxGeometry>
        </mxCell>
      </root>
    </mxGraphModel>
  </diagram>
</mxfile>
